<svg xmlns="http://www.w3.org/2000/svg" style="display: none;"><symbol id="arrowhead-pointing-to-the-right" viewBox="0 0 292.359 292.359"><title>arrowhead-pointing-to-the-right</title><path d="M222.979,133.331L95.073,5.424C91.456,1.807,87.178,0,82.226,0c-4.952,0-9.233,1.807-12.85,5.424 c-3.617,3.617-5.424,7.898-5.424,12.847v255.813c0,4.948,1.807,9.232,5.424,12.847c3.621,3.617,7.902,5.428,12.85,5.428 c4.949,0,9.23-1.811,12.847-5.428l127.906-127.907c3.614-3.613,5.428-7.897,5.428-12.847 C228.407,141.229,226.594,136.948,222.979,133.331z"/></symbol><symbol id="left-arrow" viewBox="0 0 292.359 292.359"><title>left-arrow</title><path d="M222.979,5.424C219.364,1.807,215.08,0,210.132,0c-4.949,0-9.233,1.807-12.848,5.424L69.378,133.331 c-3.615,3.617-5.424,7.898-5.424,12.847c0,4.949,1.809,9.233,5.424,12.847l127.906,127.907c3.614,3.617,7.898,5.428,12.848,5.428 c4.948,0,9.232-1.811,12.847-5.428c3.617-3.614,5.427-7.898,5.427-12.847V18.271C228.405,13.322,226.596,9.042,222.979,5.424z"/></symbol><symbol id="search" viewBox="0 0 56.966 56.966"><title>search</title><path d="M55.146,51.887L41.588,37.786c3.486-4.144,5.396-9.358,5.396-14.786c0-12.682-10.318-23-23-23s-23,10.318-23,23 s10.318,23,23,23c4.761,0,9.298-1.436,13.177-4.162l13.661,14.208c0.571,0.593,1.339,0.92,2.162,0.92 c0.779,0,1.518-0.297,2.079-0.837C56.255,54.982,56.293,53.08,55.146,51.887z M23.984,6c9.374,0,17,7.626,17,17s-7.626,17-17,17 s-17-7.626-17-17S14.61,6,23.984,6z"/></symbol></svg>